#N canvas 172 103 514 514 10;
#X obj 146 129 inlet;
#X obj 146 455 outlet~;
#X obj 146 169 sel 0;
#X obj 173 213 trigger b b b;
#X obj 146 275 0;
#X obj 230 275 pack 1 0;
#X obj 146 388 line~;
#X text 289 273 Attack;
#X obj 348 259 delay;
#X obj 348 304 pack 0 0 0;
#X obj 348 343 route 0;
#X obj 308 188 + 1;
#X obj 34 34 r r;
#X msg 119 213 stop;
#X obj 33 235 pack 0 0;
#X text 421 284 Decay;
#X text 22 208 Release;
#X obj 34 83 msgsep \$1;
#X obj 275 85 r a;
#X obj 275 131 msgsep \$1;
#X obj 348 85 r d;
#X obj 348 131 msgsep \$1;
#X obj 430 86 r s;
#X obj 430 129 msgsep \$1;
#X connect 0 0 2 0;
#X connect 2 0 13 0;
#X connect 2 0 14 0;
#X connect 2 1 3 0;
#X connect 3 0 8 0;
#X connect 3 1 5 0;
#X connect 3 2 4 0;
#X connect 4 0 6 0;
#X connect 5 0 6 0;
#X connect 6 0 1 0;
#X connect 8 0 9 0;
#X connect 9 0 10 0;
#X connect 10 0 6 0;
#X connect 11 0 8 1;
#X connect 12 0 17 0;
#X connect 13 0 8 0;
#X connect 14 0 6 0;
#X connect 17 0 14 1;
#X connect 18 0 19 0;
#X connect 19 0 5 1;
#X connect 19 0 11 0;
#X connect 20 0 21 0;
#X connect 21 0 9 2;
#X connect 22 0 23 0;
#X connect 23 0 9 1;
