#N canvas 739 154 736 478 10;
#X obj 185 25 notein;
#X obj 185 175 route 1 2 3 4;
#X floatatom 292 89 5 0 0 0 - - -, f 5;
#X floatatom 334 89 5 0 0 0 - - -, f 5;
#X floatatom 378 89 5 0 0 0 - - -, f 5;
#X obj 185 88 pack 0 0 0;
#X msg 185 129 \$3 \$1 \$2;
#X obj 75 237 unpack 0 0;
#X obj 219 415 dac~;
#X obj 219 376 *~ 0.075;
#X obj 173 237 unpack 0 0;
#X obj 258 237 unpack 0 0;
#X obj 350 237 unpack 0 0;
#X obj 127 175 print;
#X obj 498 108 s a;
#X obj 539 110 s d;
#X obj 618 111 s r;
#X obj 580 113 s s;
#X text 495 45 Envelope filter controls;
#X obj 304 341 r volumeGlobal;
#X obj 575 190 s volumeGlobal;
#X msg 575 156 0.075;
#X obj 78 289 tm_core 1;
#X obj 176 288 tm_core 2;
#X obj 261 289 tm_core 3;
#X obj 353 287 tm_core 4;
#X msg 498 69 0 1;
#X msg 539 70 100 1;
#X msg 618 71 100 1;
#X msg 580 70 30 1;
#X connect 0 0 2 0;
#X connect 0 0 5 0;
#X connect 0 1 3 0;
#X connect 0 1 5 1;
#X connect 0 2 4 0;
#X connect 0 2 5 2;
#X connect 1 0 7 0;
#X connect 1 1 10 0;
#X connect 1 2 11 0;
#X connect 1 3 12 0;
#X connect 5 0 6 0;
#X connect 6 0 1 0;
#X connect 6 0 13 0;
#X connect 7 0 22 0;
#X connect 7 1 22 1;
#X connect 9 0 8 0;
#X connect 9 0 8 1;
#X connect 10 0 23 0;
#X connect 10 1 23 1;
#X connect 11 0 24 0;
#X connect 11 1 24 1;
#X connect 12 0 25 0;
#X connect 12 1 25 1;
#X connect 19 0 9 1;
#X connect 21 0 20 0;
#X connect 22 0 9 0;
#X connect 23 0 9 0;
#X connect 24 0 9 0;
#X connect 25 0 9 0;
#X connect 26 0 14 0;
#X connect 27 0 15 0;
#X connect 28 0 16 0;
#X connect 29 0 17 0;
