#N canvas 887 211 516 368 10;
#X obj 63 21 inlet;
#X obj 64 309 outlet~;
#X obj 63 94 mtof;
#X obj 63 204 *~;
#X obj 195 175 / 127;
#X obj 63 64 unpack 0 0;
#X obj 62 164 *~;
#X obj 168 129 sel 0;
#X obj 63 127 osc~;
#X obj 64 244 *~ 0.3;
#X obj 120 129 adsr \$1;
#X connect 0 0 5 0;
#X connect 2 0 8 0;
#X connect 3 0 9 0;
#X connect 4 0 3 1;
#X connect 5 0 2 0;
#X connect 5 1 7 0;
#X connect 5 1 10 0;
#X connect 6 0 3 0;
#X connect 7 1 4 0;
#X connect 8 0 6 0;
#X connect 9 0 1 0;
#X connect 10 0 6 1;
