#N canvas 956 220 450 420 10;
#X obj 49 153 pack 0 0 0;
#X obj 49 70 notein;
#X obj 261 34 vsl 15 128 0 127 0 0 a empty a 0 -9 0 10 -262144 -1 -1
12700 1;
#X obj 296 34 vsl 15 128 0 127 0 0 d empty d 0 -9 0 10 -262144 -1 -1
12700 1;
#X obj 336 36 vsl 15 128 0 127 0 0 s empty s 0 -9 0 10 -262144 -1 -1
1600 1;
#X obj 376 37 vsl 15 128 0 127 0 0 r empty r 0 -9 0 10 -262144 -1 -1
12700 1;
#X obj 49 227 note;
#X obj 49 123 poly 4 1;
#X obj 49 187 route 1 2 3 4;
#X obj 49 340 dac~;
#X obj 49 301 *~;
#X obj 216 290 hsl 128 15 0 1 0 0 empty empty empty -2 -8 0 10 -262144
-1 -1 0 1;
#X obj 91 228 note;
#X obj 134 228 note;
#X obj 178 228 note;
#X msg 170 279 0.075;
#X connect 0 0 8 0;
#X connect 1 0 7 0;
#X connect 1 1 7 1;
#X connect 6 0 10 0;
#X connect 7 0 0 0;
#X connect 7 1 0 1;
#X connect 7 2 0 2;
#X connect 8 0 6 0;
#X connect 8 1 12 0;
#X connect 8 2 13 0;
#X connect 8 3 14 0;
#X connect 10 0 9 0;
#X connect 10 0 9 1;
#X connect 12 0 10 0;
#X connect 13 0 10 0;
#X connect 14 0 10 0;
#X connect 15 0 10 1;
