#N canvas 267 199 442 395 10;
#X obj 46 150 pack 0 0 0;
#X obj 46 113 poly 1 1;
#X obj 46 197 route 1;
#X obj 46 63 inlet;
#X obj 96 63 inlet;
#X obj 47 283 outlet~;
#X obj 46 238 note \$1;
#X connect 0 0 2 0;
#X connect 1 0 0 0;
#X connect 1 1 0 1;
#X connect 1 2 0 2;
#X connect 2 0 6 0;
#X connect 3 0 1 0;
#X connect 4 0 1 1;
#X connect 6 0 5 0;
